<?xml version="1.0" encoding="UTF-8" standalone="no"?>
<svg
   xmlns:dc="http://purl.org/dc/elements/1.1/"
   xmlns:cc="http://creativecommons.org/ns#"
   xmlns:rdf="http://www.w3.org/1999/02/22-rdf-syntax-ns#"
   xmlns:svg="http://www.w3.org/2000/svg"
   xmlns="http://www.w3.org/2000/svg"
   viewBox="0 0 207.87466 207.87466"
   height="207.87466"
   width="207.87466"
   xml:space="preserve"
   id="svg2"
   version="1.1"><metadata
     id="metadata8"><rdf:RDF><cc:Work
         rdf:about=""><dc:format>image/svg+xml</dc:format><dc:type
           rdf:resource="http://purl.org/dc/dcmitype/StillImage" /></cc:Work></rdf:RDF></metadata><defs
     id="defs6"><clipPath
       id="clipPath18"
       clipPathUnits="userSpaceOnUse"><path
         id="path16"
         d="M 0,155.906 H 155.906 V 0 H 0 Z" /></clipPath></defs><g
     transform="matrix(1.3333333,0,0,-1.3333333,0,207.87467)"
     id="g10"><g
       id="g12"><g
         clip-path="url(#clipPath18)"
         id="g14"><g
           transform="translate(155.9055,77.9529)"
           id="g20"><path
             id="path22"
             style="fill:#c1868c;fill-opacity:1;fill-rule:nonzero;stroke:none"
             d="m 0,0 c 0,-43.052 -34.9,-77.953 -77.953,-77.953 -43.052,0 -77.952,34.901 -77.952,77.953 0,43.052 34.9,77.953 77.952,77.953 C -34.9,77.953 0,43.052 0,0" /></g><g
           transform="translate(57.3127,22.9597)"
           id="g24"><path
             id="path26"
             style="fill:#493c3c;fill-opacity:1;fill-rule:nonzero;stroke:none"
             d="m 0,0 c -0.188,-0.603 -0.122,-1.196 0.198,-1.78 0.321,-0.584 0.796,-0.975 1.425,-1.171 0.629,-0.196 1.236,-0.144 1.821,0.158 0.585,0.302 0.972,0.756 1.161,1.362 0.189,0.607 0.127,1.202 -0.184,1.788 C 4.109,0.943 3.64,1.333 3.014,1.528 2.389,1.724 1.777,1.668 1.179,1.363 0.581,1.057 0.188,0.603 0,0 M -1.087,-2.306 1.431,5.766 1.788,5.655 0.412,1.242 C 0.736,1.574 1.149,1.792 1.651,1.895 2.153,1.998 2.635,1.977 3.097,1.833 3.834,1.603 4.384,1.158 4.747,0.498 5.108,-0.163 5.181,-0.841 4.964,-1.537 4.747,-2.233 4.302,-2.75 3.628,-3.086 2.955,-3.424 2.25,-3.477 1.512,-3.247 1.065,-3.108 0.666,-2.855 0.314,-2.49 c -0.352,0.366 -0.578,0.781 -0.678,1.245 L -0.73,-2.418 Z" /></g><g
           transform="translate(66.5358,22.9143)"
           id="g28"><path
             id="path30"
             style="fill:#493c3c;fill-opacity:1;fill-rule:nonzero;stroke:none"
             d="m 0,0 c -0.608,0.122 -1.193,0.004 -1.755,-0.354 -0.561,-0.359 -0.901,-0.833 -1.02,-1.423 -0.119,-0.59 -0.019,-1.146 0.297,-1.67 l 3.981,2.524 C 1.109,-0.43 0.608,-0.123 0,0 m -0.866,-4.932 -0.104,0.02 c -0.726,0.147 -1.306,0.537 -1.74,1.173 -0.433,0.635 -0.58,1.302 -0.438,2.003 0.14,0.7 0.53,1.252 1.168,1.657 0.638,0.404 1.352,0.527 2.14,0.369 0.787,-0.159 1.403,-0.597 1.848,-1.315 l -4.292,-2.702 c 0.421,-0.483 0.86,-0.771 1.319,-0.863 0.459,-0.093 0.891,-0.074 1.295,0.056 0.404,0.129 0.758,0.34 1.064,0.631 L 1.281,-4.467 c -0.659,-0.465 -1.375,-0.62 -2.147,-0.465" /></g><g
           transform="translate(71.8054,17.0779)"
           id="g32"><path
             id="path34"
             style="fill:#493c3c;fill-opacity:1;fill-rule:nonzero;stroke:none"
             d="m 0,0 -0.105,0.011 c -0.745,0.078 -1.357,0.41 -1.837,0.997 -0.48,0.587 -0.683,1.238 -0.608,1.951 0.075,0.714 0.411,1.303 1.009,1.766 0.598,0.462 1.292,0.652 2.084,0.569 C 1.334,5.211 1.979,4.853 2.478,4.219 L 2.418,3.647 C 2.213,4.016 1.937,4.321 1.59,4.561 1.242,4.801 0.867,4.943 0.463,4.985 -0.181,5.053 -0.766,4.881 -1.291,4.472 -1.816,4.062 -2.112,3.539 -2.179,2.904 -2.246,2.269 -2.064,1.696 -1.635,1.186 c 0.429,-0.51 0.966,-0.798 1.61,-0.866 0.403,-0.042 0.8,0.018 1.19,0.181 0.389,0.164 0.723,0.409 1,0.735 L 2.104,0.653 C 1.5,0.134 0.799,-0.083 0,0" /></g><g
           transform="translate(80.2009,19.4065)"
           id="g36"><path
             id="path38"
             style="fill:#493c3c;fill-opacity:1;fill-rule:nonzero;stroke:none"
             d="M 0,0 C 0.01,0.635 -0.218,1.189 -0.682,1.663 -1.147,2.136 -1.707,2.378 -2.362,2.388 -3.018,2.398 -3.589,2.172 -4.076,1.71 -4.563,1.248 -4.812,0.701 -4.822,0.07 c -0.01,-0.632 0.222,-1.182 0.695,-1.652 0.472,-0.47 1.038,-0.71 1.697,-0.72 0.659,-0.01 1.227,0.212 1.702,0.667 0.476,0.455 0.718,1 0.728,1.635 m -4.417,-1.78 c -0.53,0.545 -0.79,1.175 -0.778,1.889 0.01,0.714 0.293,1.328 0.848,1.842 0.554,0.514 1.215,0.765 1.984,0.753 C -1.595,2.692 -0.944,2.42 -0.41,1.89 0.125,1.359 0.386,0.734 0.375,0.017 0.364,-0.701 0.088,-1.323 -0.45,-1.848 -0.989,-2.373 -1.637,-2.63 -2.394,-2.618 l -0.105,10e-4 c -0.749,0.012 -1.388,0.291 -1.918,0.837" /></g><g
           transform="translate(84.0583,17.364)"
           id="g40"><path
             id="path42"
             style="fill:#493c3c;fill-opacity:1;fill-rule:nonzero;stroke:none"
             d="m 0,0 0.021,-0.315 c -0.552,-0.038 -1.035,0.108 -1.449,0.438 -0.413,0.329 -0.639,0.772 -0.677,1.327 l -0.454,6.636 0.374,0.026 0.454,-6.637 C -1.7,1.018 -1.517,0.65 -1.181,0.372 -0.845,0.093 -0.452,-0.031 0,0" /></g><g
           transform="translate(84.632,19.6989)"
           id="g44"><path
             id="path46"
             style="fill:#493c3c;fill-opacity:1;fill-rule:nonzero;stroke:none"
             d="m 0,0 c 0.088,-0.625 0.401,-1.133 0.941,-1.524 0.539,-0.392 1.135,-0.541 1.788,-0.45 0.653,0.092 1.179,0.399 1.579,0.922 0.399,0.523 0.555,1.098 0.466,1.727 C 4.687,1.304 4.376,1.817 3.844,2.213 3.312,2.609 2.721,2.761 2.072,2.67 1.423,2.579 0.894,2.268 0.483,1.736 0.074,1.204 -0.088,0.625 0,0 M 4.769,3.242 5.474,-1.783 5.103,-1.834 4.928,-0.584 C 4.771,-1.039 4.493,-1.419 4.095,-1.726 3.696,-2.032 3.25,-2.22 2.756,-2.289 1.998,-2.395 1.313,-2.228 0.7,-1.786 0.086,-1.345 -0.271,-0.763 -0.373,-0.041 -0.474,0.681 -0.29,1.339 0.178,1.932 0.646,2.525 1.259,2.875 2.017,2.981 2.511,3.051 3.002,2.99 3.49,2.801 3.977,2.611 4.339,2.32 4.575,1.928 L 4.398,3.19 Z" /></g><g
           transform="translate(93.6579,18.9616)"
           id="g48"><path
             id="path50"
             style="fill:#493c3c;fill-opacity:1;fill-rule:nonzero;stroke:none"
             d="m 0,0 0.068,-0.308 c -0.541,-0.12 -1.04,-0.048 -1.498,0.216 -0.459,0.264 -0.748,0.668 -0.868,1.211 L -3.439,6.271 -3.074,6.352 -2.63,4.349 -1.053,4.698 -0.985,4.39 -2.562,4.04 -1.932,1.2 C -1.833,0.752 -1.597,0.416 -1.223,0.191 -0.85,-0.034 -0.442,-0.098 0,0" /></g><g
           transform="translate(95.988,24.3947)"
           id="g52"><path
             id="path54"
             style="fill:#493c3c;fill-opacity:1;fill-rule:nonzero;stroke:none"
             d="m 0,0 c -0.595,-0.177 -1.056,-0.556 -1.383,-1.136 -0.328,-0.58 -0.406,-1.158 -0.234,-1.735 0.172,-0.576 0.521,-1.021 1.046,-1.335 L 1.761,-0.11 C 1.181,0.141 0.594,0.178 0,0 m 1.549,-4.762 -0.101,-0.03 c -0.71,-0.212 -1.406,-0.139 -2.087,0.219 -0.68,0.357 -1.123,0.878 -1.327,1.563 -0.204,0.684 -0.119,1.354 0.255,2.011 0.374,0.657 0.946,1.1 1.716,1.33 0.77,0.23 1.52,0.132 2.249,-0.293 l -2.522,-4.401 c 0.598,-0.229 1.121,-0.277 1.57,-0.143 0.448,0.134 0.821,0.353 1.116,0.657 0.297,0.304 0.511,0.656 0.644,1.057 L 3.227,-3.343 C 2.863,-4.063 2.304,-4.537 1.549,-4.762" /></g><g
           transform="translate(103.8718,22.0583)"
           id="g56"><path
             id="path58"
             style="fill:#493c3c;fill-opacity:1;fill-rule:nonzero;stroke:none"
             d="m 0,0 -3.356,-1.316 -0.128,0.325 3.356,1.316 z" /></g><g
           transform="translate(24.2644,75.7004)"
           id="g60"><path
             id="path62"
             style="fill:#4a3c3c;fill-opacity:1;fill-rule:nonzero;stroke:none"
             d="m 0,0 c 0,-1.752 0.642,-3.27 1.924,-4.553 1.284,-1.283 2.806,-1.925 4.569,-1.925 1.763,0 3.271,0.642 4.522,1.925 1.252,1.283 1.878,2.805 1.878,4.569 C 12.893,1.778 12.262,3.306 11,4.6 9.737,5.893 8.23,6.54 6.478,6.54 4.725,6.54 3.208,5.888 1.924,4.584 0.642,3.28 0,1.752 0,0 M -0.939,-7.01 V 16.46 H 0.062 V 3.63 c 0.564,1.147 1.445,2.065 2.645,2.754 1.199,0.688 2.446,1.033 3.739,1.033 2.066,0 3.823,-0.726 5.273,-2.175 1.45,-1.45 2.175,-3.187 2.175,-5.211 0,-2.024 -0.725,-3.76 -2.175,-5.21 -1.45,-1.45 -3.207,-2.175 -5.273,-2.175 -1.251,0 -2.472,0.339 -3.661,1.017 -1.189,0.678 -2.097,1.59 -2.723,2.738 V -7.01 Z" /></g><g
           transform="translate(47.843,82.2092)"
           id="g64"><path
             id="path66"
             style="fill:#4a3c3c;fill-opacity:1;fill-rule:nonzero;stroke:none"
             d="m 0,0 c -1.658,0 -3.129,-0.642 -4.412,-1.924 -1.283,-1.284 -1.925,-2.76 -1.925,-4.429 0,-1.668 0.553,-3.129 1.659,-4.38 L 4.428,-1.69 C 3.134,-0.563 1.659,0 0,0 M 0.329,-13.894 H 0.047 c -1.982,0 -3.708,0.746 -5.179,2.237 -1.471,1.491 -2.206,3.228 -2.206,5.211 0,1.982 0.73,3.697 2.191,5.148 1.459,1.449 3.264,2.174 5.413,2.174 2.149,0 3.995,-0.855 5.539,-2.566 l -9.826,-9.701 c 1.356,-1.085 2.66,-1.627 3.912,-1.627 1.251,0 2.373,0.287 3.363,0.861 0.991,0.573 1.81,1.34 2.457,2.3 v -1.596 c -1.482,-1.628 -3.275,-2.441 -5.382,-2.441" /></g><g
           transform="translate(63.4431,68.2839)"
           id="g68"><path
             id="path70"
             style="fill:#4a3c3c;fill-opacity:1;fill-rule:nonzero;stroke:none"
             d="m 0,0 h -0.282 c -2.003,0 -3.724,0.74 -5.163,2.222 -1.44,1.481 -2.159,3.217 -2.159,5.21 0,1.992 0.729,3.713 2.19,5.163 1.46,1.45 3.254,2.176 5.382,2.176 2.129,0 3.944,-0.804 5.446,-2.41 v -1.596 c -0.647,0.959 -1.466,1.721 -2.457,2.284 -0.991,0.563 -2.029,0.845 -3.114,0.845 -1.732,0 -3.239,-0.642 -4.522,-1.924 -1.282,-1.283 -1.924,-2.812 -1.924,-4.585 0,-1.773 0.642,-3.302 1.924,-4.584 1.283,-1.283 2.79,-1.925 4.522,-1.925 1.085,0 2.123,0.282 3.114,0.845 0.991,0.563 1.81,1.335 2.457,2.316 V 2.41 C 3.953,0.803 2.148,0 0,0" /></g><g
           transform="translate(84.6281,75.716)"
           id="g72"><path
             id="path74"
             style="fill:#4a3c3c;fill-opacity:1;fill-rule:nonzero;stroke:none"
             d="m 0,0 c 0,1.763 -0.631,3.291 -1.893,4.584 -1.263,1.293 -2.77,1.94 -4.522,1.94 -1.752,0 -3.27,-0.652 -4.553,-1.955 -1.283,-1.304 -1.925,-2.832 -1.925,-4.585 0,-1.752 0.642,-3.27 1.925,-4.553 1.283,-1.283 2.805,-1.924 4.569,-1.924 1.762,0 3.27,0.641 4.522,1.924 C -0.625,-3.286 0,-1.763 0,0 m -11.735,-5.132 c -1.439,1.491 -2.159,3.228 -2.159,5.21 0,1.982 0.73,3.698 2.19,5.148 1.46,1.45 3.218,2.175 5.273,2.175 2.055,0 3.807,-0.725 5.258,-2.175 1.449,-1.45 2.174,-3.171 2.174,-5.164 0,-1.992 -0.709,-3.729 -2.127,-5.21 C -2.545,-6.629 -4.267,-7.37 -6.29,-7.37 h -0.281 c -2.003,0 -3.724,0.746 -5.164,2.238" /></g><g
           transform="translate(93.9528,69.2854)"
           id="g76"><path
             id="path78"
             style="fill:#4a3c3c;fill-opacity:1;fill-rule:nonzero;stroke:none"
             d="m 0,0 v -0.876 c -1.481,0 -2.743,0.495 -3.786,1.486 -1.044,0.991 -1.565,2.258 -1.565,3.802 V 22.875 H -4.35 V 4.412 C -4.35,3.14 -3.927,2.086 -3.082,1.251 -2.237,0.417 -1.21,0 0,0" /></g><g
           transform="translate(95.424,75.7004)"
           id="g80"><path
             id="path82"
             style="fill:#4a3c3c;fill-opacity:1;fill-rule:nonzero;stroke:none"
             d="m 0,0 c 0,-1.752 0.642,-3.27 1.924,-4.553 1.284,-1.283 2.806,-1.925 4.569,-1.925 1.763,0 3.271,0.642 4.522,1.925 1.252,1.283 1.878,2.805 1.878,4.569 C 12.893,1.778 12.262,3.306 11,4.6 9.737,5.893 8.23,6.54 6.478,6.54 4.725,6.54 3.208,5.888 1.924,4.584 0.642,3.28 0,1.752 0,0 M 13.832,7.072 V -7.01 H 12.83 v 3.505 C 12.246,-4.694 11.37,-5.633 10.202,-6.321 9.033,-7.01 7.781,-7.354 6.446,-7.354 c -2.045,0 -3.797,0.725 -5.257,2.175 -1.46,1.45 -2.19,3.186 -2.19,5.21 0,2.024 0.73,3.761 2.19,5.211 1.46,1.449 3.212,2.175 5.257,2.175 1.335,0 2.614,-0.355 3.834,-1.064 1.22,-0.71 2.07,-1.649 2.55,-2.817 v 3.536 z" /></g><g
           transform="translate(118.048,69.3791)"
           id="g84"><path
             id="path86"
             style="fill:#4a3c3c;fill-opacity:1;fill-rule:nonzero;stroke:none"
             d="m 0,0 v -0.876 c -1.481,0 -2.743,0.495 -3.786,1.486 -1.044,0.991 -1.565,2.258 -1.565,3.802 v 14.646 h 1.001 v -5.696 h 4.319 V 12.486 H -4.35 V 4.412 C -4.35,3.14 -3.927,2.086 -3.082,1.251 -2.237,0.417 -1.21,0 0,0" /></g><g
           transform="translate(127.2639,82.2092)"
           id="g88"><path
             id="path90"
             style="fill:#4a3c3c;fill-opacity:1;fill-rule:nonzero;stroke:none"
             d="m 0,0 c -1.658,0 -3.129,-0.642 -4.412,-1.924 -1.283,-1.284 -1.925,-2.76 -1.925,-4.429 0,-1.668 0.553,-3.129 1.659,-4.38 L 4.428,-1.69 C 3.135,-0.563 1.658,0 0,0 M 0.329,-13.894 H 0.047 c -1.983,0 -3.708,0.746 -5.179,2.237 -1.471,1.491 -2.206,3.228 -2.206,5.211 0,1.982 0.73,3.697 2.191,5.148 1.459,1.449 3.264,2.174 5.414,2.174 2.148,0 3.994,-0.855 5.538,-2.566 l -9.826,-9.701 c 1.356,-1.085 2.66,-1.627 3.912,-1.627 1.252,0 2.373,0.287 3.364,0.861 0.99,0.573 1.809,1.34 2.456,2.3 v -1.596 c -1.482,-1.628 -3.275,-2.441 -5.382,-2.441" /></g><g
           transform="translate(34.9714,65.2756)"
           id="g92"><path
             id="path94"
             style="fill:#4a3c3c;fill-opacity:1;fill-rule:nonzero;stroke:none"
             d="M 0,0 H 1.572 V -0.42 H 0.488 v -8.298 h 1.084 v -0.42 H 0 Z" /></g><g
           transform="translate(43.8942,58.7053)"
           id="g96"><path
             id="path98"
             style="fill:#4a3c3c;fill-opacity:1;fill-rule:nonzero;stroke:none"
             d="M 0,0 C 0.312,0.182 0.558,0.436 0.737,0.762 0.916,1.087 1.005,1.458 1.005,1.875 1.005,2.291 0.916,2.662 0.737,2.987 0.558,3.313 0.312,3.566 0,3.749 -0.312,3.931 -0.664,4.022 -1.055,4.022 -1.445,4.022 -1.795,3.931 -2.104,3.749 -2.413,3.566 -2.657,3.313 -2.836,2.987 -3.015,2.662 -3.104,2.291 -3.104,1.875 c 0,-0.417 0.089,-0.788 0.268,-1.113 0.179,-0.326 0.423,-0.58 0.732,-0.762 0.309,-0.182 0.659,-0.273 1.049,-0.273 0.391,0 0.743,0.091 1.055,0.273 M 0.263,4.134 C 0.647,3.917 0.948,3.61 1.167,3.217 1.384,2.823 1.493,2.375 1.493,1.875 1.493,1.374 1.384,0.928 1.167,0.537 0.948,0.146 0.647,-0.159 0.263,-0.38 -0.121,-0.602 -0.55,-0.712 -1.025,-0.712 c -0.456,0 -0.868,0.108 -1.235,0.327 -0.368,0.218 -0.653,0.522 -0.854,0.912 v -1.2 H -3.583 V 6.57 h 0.488 V 3.261 c 0.202,0.377 0.485,0.672 0.849,0.883 0.365,0.211 0.772,0.317 1.221,0.317 0.475,0 0.904,-0.108 1.288,-0.327" /></g><g
           transform="translate(48.1008,62.8689)"
           id="g100"><path
             id="path102"
             style="fill:#4a3c3c;fill-opacity:1;fill-rule:nonzero;stroke:none"
             d="M 0,0 C 0.332,0.199 0.735,0.298 1.21,0.298 V -0.18 l -0.116,0.01 c -0.567,0 -1.01,-0.178 -1.328,-0.533 -0.319,-0.355 -0.478,-0.847 -0.478,-1.479 v -2.655 h -0.489 v 5.096 h 0.469 V -0.854 C -0.576,-0.483 -0.332,-0.198 0,0" /></g><g
           transform="translate(53.6511,58.7053)"
           id="g104"><path
             id="path106"
             style="fill:#4a3c3c;fill-opacity:1;fill-rule:nonzero;stroke:none"
             d="M 0,0 C 0.309,0.182 0.553,0.436 0.732,0.762 0.911,1.087 1,1.458 1,1.875 1,2.291 0.911,2.662 0.732,2.987 0.553,3.313 0.309,3.566 0,3.749 -0.309,3.931 -0.659,4.022 -1.049,4.022 -1.44,4.022 -1.79,3.931 -2.099,3.749 -2.408,3.566 -2.652,3.313 -2.831,2.987 -3.01,2.662 -3.1,2.291 -3.1,1.875 -3.1,1.458 -3.01,1.087 -2.831,0.762 -2.652,0.436 -2.408,0.182 -2.099,0 c 0.309,-0.182 0.659,-0.273 1.05,-0.273 0.39,0 0.74,0.091 1.049,0.273 m -2.353,-0.38 c -0.387,0.221 -0.691,0.528 -0.913,0.922 -0.221,0.394 -0.331,0.838 -0.331,1.333 0,0.494 0.11,0.938 0.331,1.332 0.222,0.394 0.526,0.701 0.913,0.922 0.388,0.222 0.822,0.332 1.304,0.332 0.481,0 0.916,-0.11 1.303,-0.332 C 0.641,3.908 0.945,3.601 1.167,3.207 1.388,2.813 1.499,2.369 1.499,1.875 1.499,1.38 1.388,0.936 1.167,0.542 0.945,0.148 0.641,-0.159 0.254,-0.38 c -0.387,-0.222 -0.822,-0.332 -1.303,-0.332 -0.482,0 -0.916,0.11 -1.304,0.332" /></g><g
           transform="translate(63.7985,63.1277)"
           id="g108"><path
             id="path110"
             style="fill:#4a3c3c;fill-opacity:1;fill-rule:nonzero;stroke:none"
             d="M 0,0 -1.933,-5.096 H -2.392 L -4.11,-0.673 -5.838,-5.096 H -6.287 L -8.22,0 h 0.469 L -6.053,-4.549 -4.315,0 h 0.42 L -2.167,-4.539 -0.449,0 Z" /></g><g
           transform="translate(68.9333,62.6106)"
           id="g112"><path
             id="path114"
             style="fill:#4a3c3c;fill-opacity:1;fill-rule:nonzero;stroke:none"
             d="M 0,0 C 0.371,-0.371 0.557,-0.905 0.557,-1.601 V -4.579 H 0.068 v 2.939 c 0,0.572 -0.145,1.009 -0.434,1.308 -0.29,0.299 -0.695,0.449 -1.216,0.449 -0.598,0 -1.07,-0.179 -1.415,-0.537 -0.345,-0.358 -0.517,-0.839 -0.517,-1.445 v -2.714 h -0.488 v 5.096 h 0.468 v -1.103 c 0.176,0.358 0.438,0.638 0.786,0.839 0.348,0.202 0.76,0.303 1.235,0.303 C -0.875,0.556 -0.371,0.371 0,0" /></g><path
           id="path116"
           style="fill:#4a3c3c;fill-opacity:1;fill-rule:nonzero;stroke:none"
           d="m 71.501,63.128 h 0.488 v -5.096 h -0.488 z m -0.039,1.352 c -0.079,0.074 -0.118,0.167 -0.118,0.278 0,0.11 0.039,0.205 0.118,0.283 0.078,0.078 0.172,0.117 0.283,0.117 0.111,0 0.205,-0.037 0.283,-0.112 0.078,-0.075 0.117,-0.168 0.117,-0.278 0,-0.111 -0.039,-0.205 -0.117,-0.283 -0.078,-0.079 -0.172,-0.118 -0.283,-0.118 -0.111,0 -0.205,0.038 -0.283,0.113" /><g
           transform="translate(74.9665,62.4983)"
           id="g118"><path
             id="path120"
             style="fill:#4a3c3c;fill-opacity:1;fill-rule:nonzero;stroke:none"
             d="M 0,0 C -0.287,-0.16 -0.516,-0.384 -0.688,-0.674 -0.861,-0.963 -0.96,-1.291 -0.986,-1.655 H 2.918 C 2.899,-1.291 2.801,-0.965 2.626,-0.679 2.45,-0.392 2.219,-0.168 1.933,-0.005 1.646,0.158 1.324,0.239 0.966,0.239 0.608,0.239 0.286,0.159 0,0 m 3.387,-2.036 h -4.383 c 0.013,-0.397 0.114,-0.75 0.303,-1.059 0.188,-0.309 0.444,-0.548 0.766,-0.717 0.322,-0.169 0.685,-0.254 1.089,-0.254 0.331,0 0.639,0.06 0.922,0.181 0.283,0.12 0.519,0.297 0.708,0.531 L 3.075,-3.676 C 2.854,-3.942 2.575,-4.147 2.24,-4.291 1.905,-4.434 1.542,-4.505 1.152,-4.505 c -0.508,0 -0.96,0.11 -1.357,0.332 -0.397,0.221 -0.708,0.527 -0.933,0.917 -0.224,0.391 -0.336,0.837 -0.336,1.338 0,0.494 0.105,0.939 0.317,1.332 0.211,0.394 0.503,0.701 0.874,0.922 0.37,0.222 0.787,0.332 1.249,0.332 0.462,0 0.877,-0.108 1.245,-0.327 0.368,-0.217 0.657,-0.522 0.869,-0.912 0.211,-0.391 0.317,-0.833 0.317,-1.328 z" /></g><g
           transform="translate(79.9934,58.1784)"
           id="g122"><path
             id="path124"
             style="fill:#4a3c3c;fill-opacity:1;fill-rule:nonzero;stroke:none"
             d="m 0,0 c -0.371,0.124 -0.661,0.28 -0.869,0.469 l 0.225,0.39 C -0.436,0.683 -0.167,0.537 0.161,0.42 0.49,0.303 0.833,0.244 1.191,0.244 c 0.514,0 0.893,0.085 1.137,0.254 0.244,0.169 0.366,0.403 0.366,0.703 0,0.215 -0.067,0.383 -0.2,0.507 C 2.361,1.832 2.196,1.923 2.001,1.981 1.806,2.04 1.536,2.102 1.191,2.167 0.788,2.239 0.462,2.317 0.215,2.401 -0.033,2.486 -0.244,2.623 -0.42,2.812 -0.595,3 -0.683,3.26 -0.683,3.592 c 0,0.404 0.167,0.738 0.502,1.001 0.336,0.263 0.812,0.395 1.431,0.395 0.325,0 0.647,-0.045 0.966,-0.136 C 2.535,4.76 2.795,4.64 2.997,4.491 L 2.772,4.1 C 2.564,4.25 2.327,4.364 2.06,4.442 1.793,4.52 1.52,4.559 1.24,4.559 0.765,4.559 0.407,4.471 0.166,4.295 -0.075,4.12 -0.195,3.889 -0.195,3.602 -0.195,3.374 -0.127,3.197 0.01,3.07 0.146,2.943 0.314,2.849 0.513,2.787 0.711,2.725 0.989,2.658 1.347,2.587 1.744,2.515 2.065,2.439 2.309,2.357 2.553,2.276 2.759,2.144 2.929,1.962 3.098,1.78 3.183,1.529 3.183,1.21 3.183,0.787 3.007,0.449 2.655,0.195 2.304,-0.059 1.809,-0.186 1.171,-0.186 0.762,-0.186 0.371,-0.124 0,0" /></g><g
           transform="translate(90.634,58.7053)"
           id="g126"><path
             id="path128"
             style="fill:#4a3c3c;fill-opacity:1;fill-rule:nonzero;stroke:none"
             d="M 0,0 C 0.312,0.182 0.558,0.436 0.737,0.762 0.916,1.087 1.005,1.458 1.005,1.875 1.005,2.291 0.916,2.662 0.737,2.987 0.558,3.313 0.312,3.566 0,3.749 -0.312,3.931 -0.664,4.022 -1.055,4.022 -1.445,4.022 -1.795,3.931 -2.104,3.749 -2.413,3.566 -2.657,3.313 -2.836,2.987 -3.015,2.662 -3.104,2.291 -3.104,1.875 c 0,-0.417 0.089,-0.788 0.268,-1.113 0.179,-0.326 0.423,-0.58 0.732,-0.762 0.309,-0.182 0.659,-0.273 1.049,-0.273 0.391,0 0.743,0.091 1.055,0.273 M 0.263,4.129 C 0.647,3.908 0.948,3.603 1.167,3.212 1.384,2.821 1.493,2.375 1.493,1.875 1.493,1.374 1.384,0.926 1.167,0.532 0.948,0.139 0.647,-0.167 0.263,-0.385 -0.121,-0.604 -0.55,-0.712 -1.025,-0.712 c -0.449,0 -0.856,0.106 -1.221,0.317 -0.364,0.211 -0.647,0.506 -0.849,0.883 v -3.055 h -0.488 v 6.989 h 0.469 v -1.2 c 0.201,0.39 0.486,0.695 0.854,0.912 0.367,0.219 0.779,0.327 1.235,0.327 0.475,0 0.904,-0.11 1.288,-0.332" /></g><g
           transform="translate(96.1442,58.6862)"
           id="g130"><path
             id="path132"
             style="fill:#4a3c3c;fill-opacity:1;fill-rule:nonzero;stroke:none"
             d="M 0,0 C 0.296,0.195 0.519,0.478 0.669,0.849 V 1.806 H -1.069 C -1.57,1.806 -1.933,1.714 -2.157,1.532 -2.382,1.35 -2.494,1.1 -2.494,0.781 c 0,-0.332 0.123,-0.594 0.371,-0.786 0.247,-0.192 0.595,-0.288 1.044,-0.288 0.423,0 0.783,0.098 1.079,0.293 M 0.649,3.998 C 0.988,3.675 1.157,3.202 1.157,2.577 V -0.654 H 0.688 v 0.907 c -0.162,-0.299 -0.4,-0.531 -0.712,-0.697 -0.312,-0.166 -0.687,-0.249 -1.123,-0.249 -0.566,0 -1.014,0.133 -1.342,0.4 -0.329,0.267 -0.493,0.618 -0.493,1.054 0,0.423 0.151,0.766 0.454,1.03 0.302,0.264 0.786,0.396 1.449,0.396 h 1.748 v 0.41 C 0.669,3.071 0.54,3.433 0.283,3.68 0.026,3.927 -0.35,4.051 -0.844,4.051 -1.183,4.051 -1.506,3.993 -1.815,3.875 -2.125,3.758 -2.387,3.602 -2.602,3.407 l -0.244,0.351 c 0.254,0.228 0.56,0.405 0.918,0.532 0.358,0.127 0.732,0.19 1.123,0.19 0.631,0 1.116,-0.161 1.454,-0.482" /></g><g
           transform="translate(100.5129,62.8689)"
           id="g134"><path
             id="path136"
             style="fill:#4a3c3c;fill-opacity:1;fill-rule:nonzero;stroke:none"
             d="M 0,0 C 0.332,0.199 0.735,0.298 1.21,0.298 V -0.18 l -0.116,0.01 c -0.567,0 -1.01,-0.178 -1.328,-0.533 -0.319,-0.355 -0.478,-0.847 -0.478,-1.479 v -2.655 h -0.489 v 5.096 h 0.469 V -0.854 C -0.576,-0.483 -0.332,-0.198 0,0" /></g><g
           transform="translate(105.5939,58.6862)"
           id="g138"><path
             id="path140"
             style="fill:#4a3c3c;fill-opacity:1;fill-rule:nonzero;stroke:none"
             d="M 0,0 C 0.296,0.195 0.519,0.478 0.669,0.849 V 1.806 H -1.069 C -1.57,1.806 -1.933,1.714 -2.157,1.532 -2.382,1.35 -2.494,1.1 -2.494,0.781 c 0,-0.332 0.123,-0.594 0.371,-0.786 0.247,-0.192 0.595,-0.288 1.044,-0.288 0.423,0 0.783,0.098 1.079,0.293 M 0.649,3.998 C 0.988,3.675 1.157,3.202 1.157,2.577 V -0.654 H 0.688 v 0.907 c -0.162,-0.299 -0.4,-0.531 -0.712,-0.697 -0.312,-0.166 -0.687,-0.249 -1.123,-0.249 -0.566,0 -1.014,0.133 -1.342,0.4 -0.329,0.267 -0.493,0.618 -0.493,1.054 0,0.423 0.151,0.766 0.454,1.03 0.302,0.264 0.786,0.396 1.449,0.396 h 1.748 v 0.41 C 0.669,3.071 0.54,3.433 0.283,3.68 0.026,3.927 -0.35,4.051 -0.844,4.051 -1.183,4.051 -1.506,3.993 -1.815,3.875 -2.125,3.758 -2.387,3.602 -2.602,3.407 l -0.244,0.351 c 0.254,0.228 0.56,0.405 0.918,0.532 0.358,0.127 0.732,0.19 1.123,0.19 0.631,0 1.116,-0.161 1.454,-0.482" /></g><g
           transform="translate(113.7985,58.3542)"
           id="g142"><path
             id="path144"
             style="fill:#4a3c3c;fill-opacity:1;fill-rule:nonzero;stroke:none"
             d="m 0,0 c -0.124,-0.117 -0.278,-0.207 -0.463,-0.269 -0.186,-0.062 -0.38,-0.092 -0.581,-0.092 -0.443,0 -0.785,0.122 -1.025,0.366 -0.241,0.244 -0.362,0.584 -0.362,1.02 v 3.329 h -0.937 v 0.419 h 0.937 v 1.113 h 0.489 V 4.773 h 1.62 V 4.354 h -1.62 v -3.28 c 0,-0.332 0.079,-0.584 0.239,-0.757 0.159,-0.172 0.395,-0.258 0.707,-0.258 0.319,0 0.583,0.094 0.791,0.283 z" /></g><path
           id="path146"
           style="fill:#4a3c3c;fill-opacity:1;fill-rule:nonzero;stroke:none"
           d="m 115.155,63.128 h 0.488 v -5.096 h -0.488 z m -0.039,1.352 c -0.078,0.074 -0.117,0.167 -0.117,0.278 0,0.11 0.039,0.205 0.117,0.283 0.079,0.078 0.173,0.117 0.284,0.117 0.11,0 0.205,-0.037 0.283,-0.112 0.078,-0.075 0.117,-0.168 0.117,-0.278 0,-0.111 -0.039,-0.205 -0.117,-0.283 -0.078,-0.079 -0.173,-0.118 -0.283,-0.118 -0.111,0 -0.205,0.038 -0.284,0.113" /><g
           transform="translate(119.4025,56.1379)"
           id="g148"><path
             id="path150"
             style="fill:#4a3c3c;fill-opacity:1;fill-rule:nonzero;stroke:none"
             d="M 0,0 V 0.42 H 1.084 V 8.718 H 0 v 0.42 H 1.571 V 0 Z" /></g><g
           transform="translate(54.3913,23.8806)"
           id="g152"><path
             id="path154"
             style="fill:#ffffff;fill-opacity:1;fill-rule:nonzero;stroke:none"
             d="m 0,0 c -0.326,-0.731 -1.184,-1.06 -1.916,-0.733 l -2.99,1.334 c -0.732,0.326 -1.06,1.184 -0.734,1.916 l 1.335,2.99 c 0.326,0.732 1.184,1.06 1.915,0.734 L 0.601,4.906 C 1.333,4.58 1.661,3.722 1.334,2.991 Z M 0.858,5.575 -2.063,6.879 C -3.166,7.371 -4.458,6.876 -4.949,5.774 L -6.253,2.852 C -6.745,1.75 -6.25,0.458 -5.148,-0.034 l 2.922,-1.303 c 1.102,-0.492 2.394,0.003 2.886,1.105 L 1.964,2.69 C 2.456,3.792 1.96,5.083 0.858,5.575" /></g><g
           transform="translate(51.7199,25.4714)"
           id="g156"><path
             id="path158"
             style="fill:#ffffff;fill-opacity:1;fill-rule:nonzero;stroke:none"
             d="m 0,0 c -0.642,0.287 -0.93,1.04 -0.644,1.682 0.287,0.642 1.04,0.93 1.682,0.644 C 1.68,2.039 1.968,1.286 1.682,0.644 1.395,0.002 0.642,-0.286 0,0 m 1.319,2.957 c -0.99,0.441 -2.152,-0.003 -2.594,-0.994 -0.442,-0.99 0.003,-2.152 0.994,-2.594 0.99,-0.442 2.152,0.003 2.594,0.994 0.441,0.99 -0.003,2.152 -0.994,2.594" /></g><g
           transform="translate(55.1096,28.0871)"
           id="g160"><path
             id="path162"
             style="fill:#ffffff;fill-opacity:1;fill-rule:nonzero;stroke:none"
             d="m 0,0 c -0.231,0.103 -0.501,0 -0.604,-0.231 -0.104,-0.231 0,-0.502 0.231,-0.605 0.231,-0.103 0.501,0.001 0.604,0.232 0.103,0.23 0,0.501 -0.231,0.604" /></g></g></g></g></svg>